<svg preserveAspectRatio="none" width="100%" height="100%" overflow="visible" style="display: block;" viewBox="0 0 151.648 179.461" fill="none" xmlns="http://www.w3.org/2000/svg">
<path id="Vector" d="M79.7971 179.461C54.8536 179.461 35.3182 171.183 21.1909 154.628C7.06363 137.851 0 116.219 0 89.7303C0 63.6832 7.17399 42.2715 21.522 25.4953C35.87 8.49844 54.7432 0 78.1415 0C91.3859 0 102.864 2.53849 112.577 7.61548C122.51 12.6925 130.236 19.7561 135.754 28.8064C141.273 37.8567 145.246 47.7899 147.674 58.6061C150.323 69.2016 151.648 80.7904 151.648 93.3725H21.1909C21.6324 113.68 26.8198 130.236 36.753 143.039C46.6863 155.621 61.0343 161.912 79.7971 161.912C105.844 161.912 122.51 149.109 129.794 123.503H149.661C145.908 140.721 137.962 154.407 125.821 164.561C113.901 174.494 98.5599 179.461 79.7971 179.461ZM21.522 77.1482H130.126C129.684 59.2684 125.049 44.81 116.219 33.773C107.61 22.5154 94.9177 16.8865 78.1415 16.8865C61.5861 16.8865 48.4522 22.405 38.7397 33.4419C29.2479 44.4789 23.5087 59.0476 21.522 77.1482Z" fill="var(--fill-0, black)"/>
</svg>
