<svg preserveAspectRatio="none" width="100%" height="100%" overflow="visible" style="display: block;" viewBox="0 0 174.839 179.461" fill="none" xmlns="http://www.w3.org/2000/svg">
<path id="Vector" d="M90.3926 179.461C63.021 179.461 41.0575 171.073 24.5021 154.296C8.16739 137.3 0 115.667 0 89.3992C0 63.7935 8.05698 42.4922 24.1709 25.4953C40.5056 8.49845 61.4758 0 87.0815 0C110.259 0 129.574 7.06364 145.025 21.1909C165.333 39.733 175.267 67.2149 174.825 103.637H52.9773C54.7433 115.336 58.8269 124.497 65.2283 131.119C71.6298 137.52 80.2386 140.721 91.0548 140.721C104.961 140.721 114.343 135.092 119.199 123.834H171.845C167.872 140.169 158.38 153.524 143.37 163.899C128.58 174.273 110.921 179.461 90.3926 179.461ZM53.3084 71.5194H120.192C119.309 61.3654 115.888 53.3084 109.928 47.3485C104.189 41.3885 96.9044 38.4085 88.0748 38.4085C68.8706 38.4085 57.2817 49.4455 53.3084 71.5194Z" fill="var(--fill-0, black)"/>
</svg>
