<svg preserveAspectRatio="none" width="100%" height="100%" overflow="visible" style="display: block;" viewBox="0 0 135.092 179.461" fill="none" xmlns="http://www.w3.org/2000/svg">
<path id="Vector" d="M70.8572 179.461C48.7833 179.461 31.676 174.163 19.5354 163.567C7.61548 152.972 1.10369 138.955 0 121.517H20.8598C23.7294 148.447 40.5056 161.912 71.1883 161.912C85.0948 161.912 95.8007 158.932 103.306 152.972C110.811 147.012 114.563 138.955 114.563 128.801C114.563 119.53 111.363 112.687 104.961 108.272C98.7806 103.858 86.7503 99.6635 68.8705 95.6902C58.4958 93.2621 50.2181 91.0547 44.0374 89.0681C37.8567 87.0814 31.4553 84.3222 24.8331 80.7904C18.4317 77.0378 13.6858 72.4023 10.5955 66.8838C7.72585 61.1446 6.29104 54.3017 6.29104 46.3551C6.29104 32.2279 11.8095 20.9702 22.8465 12.5821C33.8834 4.19404 48.2314 0 65.8905 0C103.858 0 125.049 16.8865 129.463 50.6595H108.935C106.506 28.1442 92.1585 16.8865 65.8905 16.8865C53.0877 16.8865 43.3752 19.5354 36.753 24.8331C30.1308 30.1308 26.8198 36.9737 26.8198 45.3618C26.8198 54.4121 30.3516 60.9239 37.4152 64.8972C44.4789 68.6497 57.2817 72.7334 75.8238 77.1482C96.1317 81.3422 111.032 86.9711 120.523 94.0347C130.236 100.878 135.092 112.356 135.092 128.47C135.092 143.922 129.243 156.283 117.543 165.554C106.065 174.825 90.5029 179.461 70.8572 179.461Z" fill="var(--fill-0, black)"/>
</svg>
