<svg preserveAspectRatio="none" width="100%" height="100%" overflow="visible" style="display: block;" viewBox="0 0 20 20" fill="none" xmlns="http://www.w3.org/2000/svg">
<g id="instagram_1384031 1" clip-path="url(#clip0_378_500)">
<path id="Vector" d="M19.9804 5.88006C19.9336 4.81738 19.7617 4.0868 19.5156 3.45374C19.2616 2.78176 18.8709 2.18014 18.359 1.68002C17.8589 1.1721 17.2533 0.777435 16.5891 0.527447C15.9524 0.281274 15.2256 0.109427 14.163 0.0625733C13.0923 0.0117516 12.7525 2.3212e-08 10.0371 2.3212e-08C7.32171 2.3212e-08 6.98183 0.0117516 5.91519 0.0586052C4.85251 0.105459 4.12193 0.277459 3.48902 0.523479C2.8169 0.777435 2.21528 1.16814 1.71515 1.68002C1.20724 2.18014 0.81272 2.78573 0.562579 3.44992C0.316407 4.0868 0.14456 4.81341 0.0977059 5.87609C0.0468842 6.9467 0.0351326 7.28658 0.0351326 10.002C0.0351326 12.7173 0.0468842 13.0572 0.0937378 14.1239C0.140591 15.1865 0.312592 15.9171 0.558764 16.5502C0.81272 17.2221 1.20724 17.8238 1.71515 18.3239C2.21528 18.8318 2.82086 19.2265 3.48506 19.4765C4.12193 19.7226 4.84854 19.8945 5.91137 19.9413C6.97787 19.9883 7.3179 19.9999 10.0333 19.9999C12.7486 19.9999 13.0885 19.9883 14.1552 19.9413C15.2178 19.8945 15.9484 19.7226 16.5813 19.4765C17.9254 18.9568 18.9881 17.8941 19.5078 16.5502C19.7538 15.9133 19.9258 15.1865 19.9727 14.1239C20.0195 13.0572 20.0313 12.7173 20.0313 10.002C20.0313 7.28658 20.0273 6.9467 19.9804 5.88006ZM18.1794 14.0457C18.1364 15.0225 17.9723 15.5499 17.8355 15.9015C17.4995 16.7728 16.808 17.4643 15.9367 17.8004C15.585 17.9372 15.0538 18.1012 14.0808 18.1441C13.026 18.1911 12.7096 18.2027 10.0411 18.2027C7.37253 18.2027 7.05219 18.1911 6.00111 18.1441C5.02436 18.1012 4.49691 17.9372 4.14528 17.8004C3.71169 17.6402 3.31702 17.3862 2.99668 17.0541C2.66458 16.7298 2.41063 16.3391 2.25038 15.9055C2.11363 15.5539 1.94957 15.0225 1.90668 14.0497C1.85968 12.9948 1.84808 12.6783 1.84808 10.0097C1.84808 7.34122 1.85968 7.02087 1.90668 5.96995C1.94957 4.99319 2.11363 4.46575 2.25038 4.11412C2.41063 3.68038 2.66458 3.28586 3.00065 2.96536C3.32481 2.63327 3.71551 2.37931 4.14925 2.21921C4.50088 2.08247 5.03229 1.9184 6.00508 1.87537C7.05997 1.82851 7.3765 1.81676 10.0449 1.81676C12.7174 1.81676 13.0337 1.82851 14.0848 1.87537C15.0616 1.9184 15.589 2.08247 15.9406 2.21921C16.3742 2.37931 16.7689 2.63327 17.0892 2.96536C17.4213 3.28967 17.6753 3.68038 17.8355 4.11412C17.9723 4.46575 18.1364 4.99701 18.1794 5.96995C18.2262 7.02484 18.238 7.34122 18.238 10.0097C18.238 12.6783 18.2262 12.9908 18.1794 14.0457Z" fill="var(--fill-0, black)"/>
<path id="Vector_2" d="M10.0371 4.86423C7.20069 4.86423 4.89936 7.1654 4.89936 10.002C4.89936 12.8385 7.20069 15.1397 10.0371 15.1397C12.8736 15.1397 15.1748 12.8385 15.1748 10.002C15.1748 7.1654 12.8736 4.86423 10.0371 4.86423ZM10.0371 13.3347C8.19698 13.3347 6.70437 11.8422 6.70437 10.002C6.70437 8.16169 8.19698 6.66924 10.0371 6.66924C11.8774 6.66924 13.3698 8.16169 13.3698 10.002C13.3698 11.8422 11.8774 13.3347 10.0371 13.3347Z" fill="var(--fill-0, black)"/>
<path id="Vector_3" d="M16.5775 4.6611C16.5775 5.32346 16.0405 5.86052 15.3779 5.86052C14.7156 5.86052 14.1785 5.32346 14.1785 4.6611C14.1785 3.99858 14.7156 3.46168 15.3779 3.46168C16.0405 3.46168 16.5775 3.99858 16.5775 4.6611Z" fill="var(--fill-0, black)"/>
</g>
<defs>
<clipPath id="clip0_378_500">
<rect width="20" height="20" fill="white"/>
</clipPath>
</defs>
</svg>
