<svg preserveAspectRatio="none" width="100%" height="100%" overflow="visible" style="display: block;" viewBox="0 0 32.6157 28.372" fill="none" xmlns="http://www.w3.org/2000/svg">
<path d="M0 28.372V17.566C0 12.169 1.628 7.956 4.884 4.928C8.14 1.644 12.738 0 18.68 0V5.14C15.68 5.14 13.308 6.014 11.566 7.762C9.824 9.51 8.952 11.796 8.952 14.62H14.35V28.372H0ZM18.266 28.372V17.566C18.266 12.169 19.894 7.956 23.15 4.928C26.406 1.644 31.004 0 36.946 0V5.14C33.946 5.14 31.574 6.014 29.832 7.762C28.09 9.51 27.218 11.796 27.218 14.62H32.6157V28.372H18.266Z" fill="black"/>
</svg>
