<svg preserveAspectRatio="none" width="100%" height="100%" overflow="visible" style="display: block;" viewBox="0 0 54.7834 76.7419" fill="none" xmlns="http://www.w3.org/2000/svg">
<g id="Group">
<g id="Group_2">
<path id="Vector" d="M52.5853 12.9728C52.8772 7.31293 48.5255 2.48813 42.8657 2.19627C37.2059 1.90441 32.3811 6.25601 32.0892 11.9158C31.7973 17.5757 36.1489 22.4005 41.8088 22.6924C47.4686 22.9842 52.2934 18.6326 52.5853 12.9728Z" fill="var(--fill-0, #848484)"/>
<path id="Vector_2" d="M38.0432 21.9933C32.7796 19.6262 30.4233 13.4182 32.7903 8.15455C35.1574 2.89092 41.3652 0.533937 46.6288 2.90097C51.8924 5.268 54.2492 11.4761 51.8822 16.7399C49.5151 22.0038 43.3068 24.3603 38.0432 21.9933ZM46.46 3.27632C41.4033 1.0025 35.4395 3.26627 33.1654 8.32338C30.8914 13.3805 33.1554 19.3443 38.212 21.6182C43.2691 23.8922 49.233 21.6282 51.507 16.5713C53.7809 11.5142 51.5171 5.55038 46.46 3.27632Z" fill="var(--fill-0, #231F20)"/>
</g>
<path id="Vector_3" d="M49.1628 18.0649C52.2669 14.2963 51.7283 8.72477 47.9596 5.6206C44.191 2.51643 38.6194 3.0551 35.5153 6.82375C32.4111 10.5924 32.9498 16.1639 36.7184 19.2681C40.4871 22.3723 46.0586 21.8336 49.1628 18.0649Z" fill="var(--fill-0, #231F20)"/>
<path id="Vector_4" d="M45.1258 19.7969C49.185 18.256 51.2264 13.7162 49.6855 9.65697C48.1446 5.59777 43.6048 3.5563 39.5456 5.09722C35.4864 6.63815 33.4449 11.178 34.9858 15.2372C36.5267 19.2964 41.0666 21.3378 45.1258 19.7969Z" fill="var(--fill-0, #848484)"/>
<g id="Group_3">
<path id="Vector_5" d="M10.5924 64.3068L7.42964 62.8844L13.0382 50.4123C13.4145 49.5755 14.0686 48.8944 14.8894 48.4846L25.8414 43.016C26.6805 42.597 27.3446 41.8948 27.7165 41.0337L44.2739 2.68576C44.7683 1.53616 46.1089 1.0146 47.2502 1.52794C48.3857 2.03854 48.8869 3.37683 48.3662 4.50769L30.2766 43.8771C29.8983 44.7007 29.2499 45.3705 28.4389 45.7753L17.4406 51.2672C16.6197 51.677 15.9657 52.3581 15.5894 53.1949L10.5924 64.3068Z" fill="var(--fill-0, #848484)"/>
<path id="Vector_6" d="M10.6957 64.5789L7.15778 62.9879L12.8507 50.3283C13.2452 49.4508 13.9365 48.7307 14.7971 48.3007L25.7493 42.8324C26.5439 42.4356 27.1753 41.768 27.5276 40.9527L44.0847 2.60448C44.3456 1.9977 44.8291 1.53142 45.4445 1.292C46.0607 1.05235 46.7316 1.06949 47.3343 1.34066C47.9338 1.61024 48.3911 2.09777 48.6217 2.71323C48.8524 3.32869 48.8277 3.99647 48.5531 4.59365L30.4633 43.963C30.0667 44.8264 29.3804 45.5357 28.5303 45.9595L17.532 51.4511C16.7559 51.8386 16.1327 52.4883 15.777 53.2792L10.6957 64.5789ZM7.70173 62.7814L10.4894 64.035L15.4018 53.1104C15.7964 52.2329 16.4877 51.5131 17.3483 51.0829L28.3469 45.5915C29.1131 45.2093 29.732 44.5696 30.0893 43.7912L48.1791 4.42185C48.4078 3.92519 48.4281 3.36958 48.236 2.85738C48.0443 2.34518 47.6642 1.9399 47.1655 1.71556C46.6642 1.49007 46.1061 1.47568 45.5935 1.67512C45.0815 1.87434 44.6796 2.26226 44.4624 2.76714L27.9052 41.1153C27.5146 42.0202 26.8139 42.7604 25.9325 43.2002L14.9808 48.6688C14.2047 49.0562 13.5815 49.706 13.2258 50.4969L7.70173 62.7814Z" fill="var(--fill-0, #231F20)"/>
</g>
<path id="Vector_7" d="M47.8239 3.20762L44.0934 11.5661L40.3241 19.9071L32.7248 36.5606L30.806 40.7153L29.8403 42.7977C29.4782 43.5105 28.908 44.1161 28.2153 44.5148C25.4688 45.8965 22.7508 47.2446 20.0073 48.5916L17.9537 49.6011L16.9284 50.106C16.5992 50.271 16.2947 50.485 16.0249 50.7365C15.7573 50.9904 15.5218 51.2796 15.3367 51.5997C15.1535 51.9152 15.0112 52.2763 14.8478 52.6199L13.8956 54.7005L10.05 63.0067L13.712 54.6178L14.6365 52.5247C14.7967 52.1779 14.929 51.8242 15.1238 51.4765C15.3166 51.1336 15.5636 50.822 15.8457 50.5478C16.1304 50.2757 16.4532 50.0427 16.8037 49.8616L17.8249 49.3427L19.8657 48.3078L28.0266 44.1906C28.6555 43.8255 29.1714 43.2724 29.4976 42.6238L30.4484 40.5504L32.351 36.3881L40.0374 19.7746L43.9111 11.4818L47.8239 3.20762Z" fill="var(--fill-0, white)"/>
<g id="Group_4">
<path id="Vector_8" d="M5.63193 76.3875L1.46329 74.513C0.355051 74.0147 -0.143898 72.7002 0.354364 71.592L4.94405 61.3855C5.44231 60.2772 6.75684 59.7783 7.86508 60.2765L12.0337 62.151C13.142 62.6493 13.6409 63.9638 13.1427 65.0721L8.55297 75.2786C8.0547 76.3868 6.74017 76.886 5.63193 76.3875Z" fill="var(--fill-0, #474747)"/>
<path id="Vector_9" d="M6.53204 76.7419C6.20283 76.7419 5.87454 76.6725 5.56635 76.5338L1.39771 74.6593C0.206314 74.1234 -0.327586 72.7181 0.208372 71.5265L4.79805 61.3198C5.33378 60.1284 6.73879 59.5943 7.9311 60.1304L12.0995 62.0049C13.2914 62.5409 13.8248 63.9461 13.2889 65.138L8.69917 75.3442C8.44056 75.9193 7.97154 76.3602 7.37847 76.5852C7.10318 76.6899 6.81692 76.7419 6.53204 76.7419ZM6.96542 60.2428C6.71868 60.2428 6.4715 60.2878 6.23322 60.3783C5.71988 60.5734 5.31414 60.9543 5.09048 61.4511L0.500795 71.6579C0.037486 72.6882 0.498971 73.9034 1.52931 74.3667L5.69794 76.2412C6.19552 76.4651 6.75135 76.4804 7.26446 76.2857C7.7778 76.0906 8.18354 75.7098 8.40674 75.2129L12.9964 65.0066C13.2199 64.5097 13.2356 63.9532 13.041 63.4401C12.8459 62.9267 12.465 62.521 11.9682 62.2973L7.79974 60.4226C7.53336 60.3029 7.24984 60.2428 6.96542 60.2428Z" fill="var(--fill-0, black)"/>
</g>
<path id="Vector_10" d="M2.85525 74.2774C2.19776 74.035 1.68899 73.4033 1.57522 72.6811C1.5149 72.3206 1.56036 71.943 1.69195 71.598L2.09267 70.6305C2.62862 69.3468 3.19406 68.0766 3.75972 66.8064C4.33428 65.5401 4.90953 64.2742 5.5138 63.0213L5.97185 62.0796C6.14274 61.752 6.39519 61.4676 6.70497 61.2732C7.32112 60.8793 8.13122 60.8407 8.74897 61.1722C8.09558 60.9287 7.34488 61.0283 6.8192 61.4397C6.55054 61.633 6.3399 61.8973 6.20557 62.1936L5.80257 63.1513C5.26638 64.4348 4.70095 65.7052 4.13506 66.9752C3.56004 68.2413 2.98502 69.5072 2.38052 70.7598L1.93184 71.697C1.7991 71.9942 1.74153 72.3273 1.77488 72.6565C1.81555 73.3229 2.23934 73.9504 2.85525 74.2774Z" fill="var(--fill-0, white)"/>
<path id="Vector_11" d="M46.9105 17.7694C49.8491 15.2446 50.1845 10.8156 47.6597 7.87703C45.1349 4.93845 40.7059 4.60302 37.7674 7.12784C34.8288 9.65266 34.4934 14.0816 37.0182 17.0202C39.543 19.9588 43.972 20.2942 46.9105 17.7694Z" fill="var(--fill-0, black)"/>
<path id="Vector_12" d="M46.9171 8.88727C47.4351 9.4792 47.8186 10.1911 48.0619 10.9502C48.294 11.7135 48.371 12.5268 48.2911 13.3278C48.1314 14.935 47.269 16.4535 45.9958 17.4576C44.7105 18.4463 43.0263 18.9085 41.4289 18.67C40.6328 18.551 39.8633 18.2764 39.18 17.8642C38.504 17.442 37.908 16.8951 37.4613 16.2477C38.4892 17.4354 39.9451 18.2037 41.468 18.3559C42.9877 18.5174 44.5554 18.0829 45.7431 17.1332C46.9562 16.2152 47.7608 14.8015 47.9781 13.2887C48.2043 11.7752 47.8168 10.1748 46.9171 8.88727Z" fill="var(--fill-0, white)"/>
</g>
</svg>
