<svg preserveAspectRatio="none" width="100%" height="100%" overflow="visible" style="display: block;" viewBox="0 0 1512 241.71" fill="none" xmlns="http://www.w3.org/2000/svg">
<g id="Frame 191">
<path id="Vector" d="M1427.55 241.71C1400.18 241.71 1378.22 233.322 1361.66 216.545C1345.33 199.549 1337.16 177.916 1337.16 151.648C1337.16 126.043 1345.22 104.741 1361.33 87.7444C1377.67 70.7475 1398.64 62.249 1424.24 62.249C1447.42 62.249 1466.73 69.3127 1482.19 83.4399C1502.49 101.982 1512.43 129.464 1511.99 165.886H1390.14C1391.9 177.585 1395.99 186.746 1402.39 193.368C1408.79 199.769 1417.4 202.97 1428.22 202.97C1442.12 202.97 1451.5 197.341 1456.36 186.083H1509.01C1505.03 202.418 1495.54 215.773 1480.53 226.148C1465.74 236.522 1448.08 241.71 1427.55 241.71ZM1390.47 133.768H1457.35C1456.47 123.614 1453.05 115.557 1447.09 109.597C1441.35 103.638 1434.07 100.658 1425.24 100.658C1406.03 100.658 1394.44 111.695 1390.47 133.768Z" fill="var(--fill-0, black)"/>
<path id="Vector_2" d="M1221.26 236.74V67.2123H1272.91V93.701H1273.91C1285.39 74.276 1300.84 64.5635 1320.26 64.5635C1325.34 64.5635 1328.87 65.005 1330.86 65.8879V112.243H1329.53C1312.76 109.815 1299.51 112.795 1289.8 121.183C1280.09 129.35 1275.23 142.484 1275.23 160.585V236.74H1221.26Z" fill="var(--fill-0, black)"/>
<path id="Vector_3" d="M1118.76 241.71C1091.39 241.71 1069.43 233.322 1052.87 216.545C1036.54 199.549 1028.37 177.916 1028.37 151.648C1028.37 126.043 1036.42 104.741 1052.54 87.7444C1068.87 70.7475 1089.84 62.249 1115.45 62.249C1138.63 62.249 1157.94 69.3127 1173.39 83.4399C1193.7 101.982 1203.63 129.464 1203.19 165.886H1081.35C1083.11 177.585 1087.19 186.746 1093.6 193.368C1100 199.769 1108.61 202.97 1119.42 202.97C1133.33 202.97 1142.71 197.341 1147.57 186.083H1200.21C1196.24 202.418 1186.75 215.773 1171.74 226.148C1156.95 236.522 1139.29 241.71 1118.76 241.71ZM1081.68 133.768H1148.56C1147.68 123.614 1144.26 115.557 1138.3 109.597C1132.56 103.638 1125.27 100.658 1116.44 100.658C1097.24 100.658 1085.65 111.695 1081.68 133.768Z" fill="var(--fill-0, black)"/>
<path id="Vector_4" d="M847.152 236.743V0.000166673H901.123V88.075H902.116C915.14 70.8573 931.916 62.2485 952.445 62.2485C970.766 62.2485 985.114 68.2085 995.489 80.1284C1006.08 91.8275 1011.38 107.279 1011.38 126.484V236.743H957.411V137.41C957.411 128.139 955.094 120.855 950.458 115.557C946.043 110.038 939.532 107.279 930.923 107.279C922.093 107.279 914.919 110.59 909.401 117.212C903.882 123.835 901.123 132.443 901.123 143.039V236.743H847.152Z" fill="var(--fill-0, black)"/>
<path id="Vector_5" d="M626.232 236.744L574.248 67.2168H629.212L647.754 137.412L655.37 170.191H656.032C658.681 157.168 661.219 145.91 663.647 136.418L681.527 67.2168H727.22L745.762 136.418L753.709 170.523H754.371C757.241 157.499 759.889 146.462 762.317 137.412L781.191 67.2168H834.499L782.515 236.744H731.856L711.989 159.927L704.705 129.465H704.042C701.394 140.944 698.855 151.098 696.427 159.927L676.229 236.744H626.232Z" fill="var(--fill-0, black)"/>
<path id="Vector_6" d="M494.847 241.049C469.904 241.049 450.368 232.772 436.241 216.216C422.114 199.44 415.05 177.808 415.05 151.319C415.05 125.272 422.224 103.86 436.572 87.0841C450.92 70.0872 469.794 61.5888 493.192 61.5888C506.436 61.5888 517.915 64.1273 527.627 69.2043C537.56 74.2813 545.286 81.3449 550.805 90.3952C556.323 99.4455 560.296 109.379 562.725 120.195C565.373 130.79 566.698 142.379 566.698 154.961H436.241C436.683 175.269 441.87 191.825 451.803 204.628C461.737 217.21 476.085 223.501 494.847 223.501C520.895 223.501 537.56 210.698 544.845 185.092H564.711C560.959 202.31 553.012 215.996 540.871 226.15C528.952 236.083 513.61 241.049 494.847 241.049ZM436.572 138.737H545.176C544.734 120.857 540.099 106.399 531.269 95.3618C522.66 84.1041 509.968 78.4753 493.192 78.4753C476.636 78.4753 463.502 83.9938 453.79 95.0307C444.298 106.068 438.559 120.636 436.572 138.737Z" fill="var(--fill-0, black)"/>
<path id="Vector_7" d="M332.913 241.38C310.839 241.38 293.732 236.083 281.591 225.487C269.671 214.892 263.16 200.875 262.056 183.436H282.916C285.785 210.367 302.562 223.832 333.244 223.832C347.151 223.832 357.857 220.852 365.362 214.892C372.867 208.932 376.619 200.875 376.619 190.721C376.619 181.45 373.419 174.607 367.017 170.192C360.837 165.777 348.806 161.583 330.926 157.61C320.552 155.182 312.274 152.974 306.093 150.988C299.913 149.001 293.511 146.242 286.889 142.71C280.488 138.957 275.742 134.322 272.651 128.804C269.782 123.064 268.347 116.221 268.347 108.275C268.347 94.1475 273.866 82.8899 284.902 74.5018C295.939 66.1137 310.287 61.9197 327.947 61.9197C365.914 61.9197 387.105 78.8062 391.519 112.579H370.991C368.562 90.0639 354.214 78.8062 327.947 78.8062C315.144 78.8062 305.431 81.4551 298.809 86.7528C292.187 92.0505 288.876 98.8934 288.876 107.281C288.876 116.332 292.408 122.844 299.471 126.817C306.535 130.569 319.338 134.653 337.88 139.068C358.188 143.262 373.088 148.891 382.579 155.954C392.292 162.797 397.148 174.276 397.148 190.39C397.148 205.841 391.299 218.203 379.599 227.474C368.121 236.745 352.559 241.38 332.913 241.38Z" fill="var(--fill-0, black)"/>
<path id="Vector_8" d="M217.066 236.743V0.000166673H237.595V236.743H217.066Z" fill="var(--fill-0, black)"/>
<path id="Vector_9" d="M118.792 241.049C93.8482 241.049 74.3128 232.772 60.1855 216.216C46.0582 199.44 38.9946 177.808 38.9946 151.319C38.9946 125.272 46.1686 103.86 60.5166 87.0841C74.8646 70.0872 93.7378 61.5888 117.136 61.5888C130.38 61.5888 141.859 64.1273 151.571 69.2043C161.505 74.2813 169.23 81.3449 174.749 90.3952C180.267 99.4455 184.241 109.379 186.669 120.195C189.318 130.79 190.642 142.379 190.642 154.961H60.1855C60.627 175.269 65.8143 191.825 75.7476 204.628C85.6808 217.21 100.029 223.501 118.792 223.501C144.839 223.501 161.505 210.698 168.789 185.092H188.655C184.903 202.31 176.956 215.996 164.816 226.15C152.896 236.083 137.554 241.049 118.792 241.049ZM60.5166 138.737H169.12C168.679 120.857 164.043 106.399 155.214 95.3618C146.605 84.1041 133.912 78.4753 117.136 78.4753C100.581 78.4753 87.4467 83.9938 77.7342 95.0307C68.2425 106.068 62.5033 120.636 60.5166 138.737Z" fill="var(--fill-0, black)"/>
<path id="Vector_10" d="M0 236.743V207.937H25.1642V236.743H0Z" fill="var(--fill-0, black)"/>
</g>
</svg>
