<svg preserveAspectRatio="none" width="100%" height="100%" overflow="visible" style="display: block;" viewBox="0 0 14.2324 14.6085" fill="none" xmlns="http://www.w3.org/2000/svg">
<path id="Vector" d="M7.35819 14.6085C5.13007 14.6085 3.34218 13.9257 1.99453 12.5601C0.664846 11.1765 0 9.41559 0 7.27732C0 5.19295 0.655859 3.45897 1.96757 2.07538C3.29726 0.691795 5.00428 0 7.08865 0C8.97537 0 10.5476 0.574998 11.8054 1.72499C13.4586 3.23436 14.2671 5.47147 14.2312 8.4363H4.31249C4.45624 9.38864 4.78866 10.1343 5.30975 10.6734C5.83084 11.1945 6.53162 11.455 7.41209 11.455C8.54412 11.455 9.30778 10.9968 9.70309 10.0804H13.9886C13.6652 11.4101 12.8925 12.4972 11.6707 13.3418C10.4668 14.1863 9.02927 14.6085 7.35819 14.6085ZM4.33944 5.82186H9.78396C9.71208 4.9953 9.43356 4.33944 8.94841 3.85428C8.48122 3.36913 7.88826 3.12655 7.16951 3.12655C5.60624 3.12655 4.66287 4.02499 4.33944 5.82186Z" fill="var(--fill-0, black)"/>
</svg>
