<svg preserveAspectRatio="none" width="100%" height="100%" overflow="visible" style="display: block;" viewBox="0 0 54.7825 76.7415" fill="none" xmlns="http://www.w3.org/2000/svg">
<g id="Group">
<g id="Group_2">
<path id="Vector" d="M52.5847 12.9726C52.8766 7.31288 48.5251 2.48821 42.8654 2.19636C37.2057 1.9045 32.381 6.25599 32.0892 11.9157C31.7973 17.5754 36.1488 22.4 41.8085 22.6919C47.4682 22.9837 52.2929 18.6323 52.5847 12.9726Z" fill="var(--fill-0, #848484)"/>
<path id="Vector_2" d="M38.0432 21.9928C32.7796 19.6258 30.4233 13.4177 32.7903 8.1541C35.1574 2.89047 41.3652 0.533487 46.6288 2.90052C51.8924 5.26755 54.2492 11.4756 51.8822 16.7395C49.5151 22.0033 43.3068 24.3599 38.0432 21.9928ZM46.46 3.27587C41.4033 1.00205 35.4395 3.26582 33.1654 8.32293C30.8914 13.38 33.1554 19.3439 38.212 21.6177C43.2691 23.8918 49.233 21.6278 51.507 16.5709C53.7809 11.5138 51.5171 5.54993 46.46 3.27587Z" fill="var(--fill-0, #231F20)"/>
</g>
<path id="Vector_3" d="M49.1621 18.0643C52.2661 14.2958 51.7275 8.72449 47.959 5.62043C44.1904 2.51637 38.6191 3.05502 35.5151 6.82354C32.411 10.5921 32.9497 16.1634 36.7182 19.2674C40.4867 22.3715 46.058 21.8328 49.1621 18.0643Z" fill="var(--fill-0, #231F20)"/>
<path id="Vector_4" d="M45.1258 19.7965C49.185 18.2555 51.2264 13.7157 49.6855 9.65652C48.1446 5.59732 43.6048 3.55585 39.5456 5.09677C35.4864 6.6377 33.4449 11.1775 34.9858 15.2367C36.5267 19.2959 41.0666 21.3374 45.1258 19.7965Z" fill="var(--fill-0, #848484)"/>
<g id="Group_3">
<path id="Vector_5" d="M10.5924 64.3063L7.42964 62.884L13.0382 50.4118C13.4145 49.575 14.0686 48.894 14.8894 48.4841L25.8414 43.0156C26.6805 42.5966 27.3446 41.8943 27.7165 41.0333L44.2739 2.6853C44.7683 1.53571 46.1089 1.01415 47.2502 1.52749C48.3857 2.03809 48.8869 3.37638 48.3662 4.50724L30.2766 43.8766C29.8983 44.7002 29.2499 45.3701 28.4389 45.7749L17.4406 51.2667C16.6197 51.6766 15.9657 52.3576 15.5894 53.1944L10.5924 64.3063Z" fill="var(--fill-0, #848484)"/>
<path id="Vector_6" d="M10.6956 64.5785L7.15778 62.9875L12.8507 50.3278C13.2452 49.4503 13.9365 48.7302 14.7971 48.3003L25.7493 42.832C26.5439 42.4351 27.1753 41.7676 27.5276 40.9522L44.0847 2.60403C44.3456 1.99725 44.8291 1.53097 45.4445 1.29155C46.0607 1.0519 46.7316 1.06904 47.3343 1.34021C47.9338 1.60979 48.3911 2.09732 48.6217 2.71278C48.8524 3.32824 48.8277 3.99601 48.5531 4.5932L30.4633 43.9626C30.0667 44.8259 29.3804 45.5353 28.5303 45.9591L17.532 51.4507C16.7559 51.8382 16.1327 52.4879 15.777 53.2788L10.6956 64.5785ZM7.70173 62.781L10.4894 64.0345L15.4018 53.11C15.7964 52.2325 16.4877 51.5126 17.3483 51.0824L28.3469 45.591C29.1131 45.2088 29.732 44.5691 30.0893 43.7908L48.1791 4.4214C48.4078 3.92474 48.4281 3.36913 48.236 2.85693C48.0443 2.34473 47.6642 1.93945 47.1655 1.71511C46.6642 1.48962 46.1061 1.47523 45.5935 1.67467C45.0815 1.87389 44.6796 2.26181 44.4624 2.76669L27.9052 41.1149C27.5146 42.0198 26.8139 42.76 25.9325 43.1998L14.9808 48.6683C14.2047 49.0558 13.5815 49.7055 13.2258 50.4964L7.70173 62.781Z" fill="var(--fill-0, #231F20)"/>
</g>
<path id="Vector_7" d="M47.8239 3.20717L44.0934 11.5657L40.3241 19.9066L32.7248 36.5602L30.806 40.7149L29.8403 42.7972C29.4782 43.51 28.908 44.1157 28.2153 44.5143C25.4688 45.896 22.7508 47.2441 20.0073 48.5911L17.9537 49.6007L16.9284 50.1056C16.5992 50.2705 16.2947 50.4846 16.0249 50.7361C15.7573 50.9899 15.5218 51.2791 15.3367 51.5992C15.1535 51.9147 15.0112 52.2759 14.8478 52.6195L13.8956 54.7L10.05 63.0062L13.712 54.6173L14.6365 52.5242C14.7967 52.1774 14.9289 51.8238 15.1238 51.4761C15.3166 51.1332 15.5636 50.8215 15.8457 50.5474C16.1304 50.2753 16.4532 50.0423 16.8037 49.8611L17.8249 49.3423L19.8657 48.3074L28.0266 44.1901C28.6555 43.8251 29.1714 43.272 29.4976 42.6234L30.4484 40.5499L32.351 36.3877L40.0374 19.7741L43.9111 11.4814L47.8239 3.20717Z" fill="var(--fill-0, white)"/>
<g id="Group_4">
<path id="Vector_8" d="M5.63193 76.387L1.46329 74.5126C0.355051 74.0143 -0.143898 72.6998 0.354364 71.5915L4.94405 61.385C5.44231 60.2768 6.75684 59.7778 7.86508 60.2761L12.0337 62.1506C13.142 62.6488 13.6409 63.9634 13.1427 65.0716L8.55297 75.2781C8.0547 76.3864 6.74017 76.8855 5.63193 76.387Z" fill="var(--fill-0, #474747)"/>
<path id="Vector_9" d="M6.53204 76.7415C6.20283 76.7415 5.87454 76.672 5.56635 76.5334L1.39771 74.6589C0.206314 74.1229 -0.327586 72.7177 0.208372 71.5261L4.79805 61.3193C5.33378 60.1279 6.73879 59.5938 7.9311 60.13L12.0995 62.0045C13.2914 62.5404 13.8248 63.9457 13.2889 65.1375L8.69917 75.3438C8.44056 75.9188 7.97154 76.3597 7.37847 76.5848C7.10318 76.6894 6.81692 76.7415 6.53204 76.7415ZM6.96542 60.2424C6.71868 60.2424 6.4715 60.2874 6.23322 60.3779C5.71988 60.573 5.31414 60.9538 5.09048 61.4507L0.500795 71.6574C0.037486 72.6878 0.498971 73.9029 1.52931 74.3662L5.69794 76.2407C6.19552 76.4646 6.75135 76.4799 7.26446 76.2853C7.7778 76.0902 8.18354 75.7093 8.40674 75.2124L12.9964 65.0062C13.2199 64.5093 13.2356 63.9527 13.041 63.4396C12.8459 62.9263 12.465 62.5206 11.9682 62.2969L7.79974 60.4222C7.53336 60.3025 7.24984 60.2424 6.96542 60.2424Z" fill="var(--fill-0, black)"/>
</g>
<path id="Vector_10" d="M2.85525 74.2769C2.19776 74.0345 1.68899 73.4028 1.57522 72.6807C1.5149 72.3202 1.56036 71.9426 1.69195 71.5976L2.09267 70.6301C2.62862 69.3464 3.19406 68.0762 3.75972 66.8059C4.33428 65.5396 4.90953 64.2737 5.5138 63.0209L5.97185 62.0792C6.14274 61.7516 6.39519 61.4672 6.70497 61.2727C7.32112 60.8789 8.13122 60.8403 8.74897 61.1718C8.09558 60.9282 7.34488 61.0278 6.8192 61.4393C6.55054 61.6326 6.3399 61.8969 6.20557 62.1932L5.80257 63.1509C5.26638 64.4343 4.70095 65.7048 4.13506 66.9748C3.56004 68.2409 2.98502 69.5068 2.38052 70.7594L1.93184 71.6965C1.7991 71.9937 1.74153 72.3268 1.77488 72.656C1.81555 73.3224 2.23934 73.95 2.85525 74.2769Z" fill="var(--fill-0, white)"/>
<path id="Vector_11" d="M46.9103 17.7688C49.8488 15.2441 50.1842 10.8152 47.6595 7.87665C45.1347 4.93811 40.7058 4.60269 37.7673 7.12747C34.8287 9.65225 34.4933 14.0811 37.0181 17.0197C39.5429 19.9582 43.9718 20.2936 46.9103 17.7688Z" fill="var(--fill-0, black)"/>
<path id="Vector_12" d="M46.9171 8.88682C47.4351 9.47875 47.8186 10.1906 48.0619 10.9498C48.294 11.713 48.371 12.5263 48.2911 13.3273C48.1314 14.9345 47.269 16.4531 45.9958 17.4571C44.7105 18.4459 43.0263 18.908 41.4289 18.6695C40.6328 18.5505 39.8633 18.2759 39.18 17.8638C38.504 17.4416 37.908 16.8947 37.4613 16.2472C38.4892 17.435 39.9451 18.2033 41.468 18.3554C42.9877 18.5169 44.5554 18.0824 45.7431 17.1327C46.9562 16.2148 47.7608 14.8011 47.9781 13.2883C48.2043 11.7747 47.8168 10.1744 46.9171 8.88682Z" fill="var(--fill-0, white)"/>
</g>
</svg>
