<svg preserveAspectRatio="none" width="100%" height="100%" overflow="visible" style="display: block;" viewBox="0 0 10.9968 14.6085" fill="none" xmlns="http://www.w3.org/2000/svg">
<path id="Vector" d="M5.76795 14.6085C3.97108 14.6085 2.57851 14.1773 1.59023 13.3148C0.61992 12.4523 0.0898435 11.3113 0 9.89176H1.69804C1.93163 12.0839 3.29725 13.18 5.7949 13.18C6.92693 13.18 7.79841 12.9375 8.40935 12.4523C9.02029 11.9671 9.32575 11.3113 9.32575 10.4847C9.32575 9.73005 9.06521 9.17302 8.54412 8.81364C8.04099 8.45427 7.0617 8.11286 5.60623 7.78943C4.7617 7.59177 4.08788 7.41209 3.58475 7.25037C3.08163 7.08865 2.56054 6.86404 2.02148 6.57654C1.50038 6.27107 1.11406 5.89373 0.862497 5.44451C0.628904 4.97733 0.512107 4.4203 0.512107 3.77343C0.512107 2.62343 0.961325 1.70703 1.85976 1.02422C2.75819 0.341405 3.92616 0 5.36366 0C8.45427 0 10.1793 1.3746 10.5386 4.12381H8.86755C8.66989 2.29101 7.50193 1.3746 5.36366 1.3746C4.32147 1.3746 3.53085 1.59023 2.99179 2.02148C2.45273 2.45273 2.1832 3.00975 2.1832 3.69256C2.1832 4.42928 2.47069 4.95936 3.04569 5.28279C3.62069 5.58826 4.66288 5.92068 6.17225 6.28006C7.82537 6.62146 9.03825 7.07966 9.81091 7.65466C10.6015 8.21169 10.9968 9.14606 10.9968 10.4578C10.9968 11.7156 10.5207 12.7218 9.56833 13.4765C8.63396 14.2312 7.36717 14.6085 5.76795 14.6085Z" fill="var(--fill-0, black)"/>
</svg>
