<svg preserveAspectRatio="none" width="100%" height="100%" overflow="visible" style="display: block;" viewBox="0 0 12.3445 14.6086" fill="none" xmlns="http://www.w3.org/2000/svg">
<path id="Vector" d="M6.49568 14.6085C4.46522 14.6085 2.87499 13.9347 1.72499 12.5871C0.574997 11.2215 0 9.46052 0 7.30428C0 5.18397 0.583981 3.44101 1.75195 2.07538C2.91991 0.691794 4.45624 0 6.36092 0C7.43904 0 8.37341 0.20664 9.16403 0.61992C9.97262 1.0332 10.6015 1.6082 11.0507 2.34491C11.5 3.08163 11.8234 3.89022 12.0211 4.77069C12.2367 5.63319 12.3445 6.57654 12.3445 7.60076H1.72499C1.76093 9.25388 2.1832 10.6015 2.99179 11.6437C3.80038 12.6679 4.96834 13.18 6.49568 13.18C8.61599 13.18 9.97263 12.1379 10.5656 10.0535H12.1828C11.8773 11.455 11.2304 12.5691 10.2422 13.3957C9.27185 14.2043 8.02302 14.6085 6.49568 14.6085ZM1.75195 6.28006H10.5925C10.5566 4.8246 10.1793 3.64765 9.46052 2.74921C8.75974 1.83281 7.72654 1.37461 6.36092 1.37461C5.01326 1.37461 3.94413 1.82382 3.15351 2.72226C2.38085 3.62069 1.91366 4.80663 1.75195 6.28006Z" fill="var(--fill-0, black)"/>
</svg>
